<svg width="13" height="17" viewBox="0 0 13 17" fill="none" xmlns="http://www.w3.org/2000/svg">
<path fill-rule="evenodd" clip-rule="evenodd" d="M2.06401 10.9698C0.797509 9.8195 0 8.14493 0 6.28066C0 2.81195 2.76091 0 6.16666 0C9.57241 0 12.3333 2.81195 12.3333 6.28066C12.3333 9.74937 9.57241 12.5613 6.16666 12.5613C5.91112 12.5613 5.65922 12.5455 5.41184 12.5147L8.13805 15.2914C8.3984 15.5566 8.3984 15.9865 8.13805 16.2517C7.8777 16.5168 7.45559 16.5168 7.19525 16.2517L2.19526 11.1591C2.13962 11.1025 2.09587 11.0383 2.06401 10.9698ZM6.16666 11.2026C8.83604 11.2026 11 8.99866 11 6.27996C11 3.56125 8.83604 1.3573 6.16666 1.3573C3.49727 1.3573 1.33331 3.56125 1.33331 6.27996C1.33331 8.99866 3.49727 11.2026 6.16666 11.2026Z" fill="#C4C4C4"/>
</svg>
